<?xml version="1.0" standalone="no"?>
<!DOCTYPE svg PUBLIC "-//W3C//DTD SVG 20010904//EN"
 "http://www.w3.org/TR/2001/REC-SVG-20010904/DTD/svg10.dtd">
<svg version="1.0" xmlns="http://www.w3.org/2000/svg"
 width="78.000000pt" height="81.000000pt" viewBox="0 0 78.000000 81.000000"
 preserveAspectRatio="xMidYMid meet">

<g transform="translate(0.000000,81.000000) scale(0.100000,-0.100000)"
fill="#000000" stroke="none">
<path d="M334 740 c-105 -22 -208 -103 -252 -198 -23 -49 -27 -71 -27 -147 0
-78 4 -97 28 -147 89 -181 299 -253 477 -163 58 29 134 111 162 172 17 37 22
69 22 138 1 110 -18 159 -94 239 -82 86 -208 129 -316 106z m193 -60 c29 -12
58 -28 64 -36 9 -12 4 -14 -34 -14 -27 0 -47 5 -50 13 -4 9 -7 9 -14 0 -5 -6
-31 -13 -58 -15 l-50 -3 -3 -42 c-3 -46 -10 -50 -60 -32 -27 9 -30 13 -20 29
16 25 3 50 -27 50 -30 0 -43 -25 -27 -51 10 -16 8 -20 -12 -25 -28 -7 -32 -14
-42 -79 -8 -60 13 -59 32 1 11 34 12 26 7 -71 -3 -60 -10 -116 -16 -123 -5 -6
-7 -25 -4 -41 5 -21 1 -34 -15 -47 -20 -19 -21 -18 -49 15 -64 77 -78 226 -31
322 74 151 253 217 409 149z m81 -147 l-3 -78 -103 -3 c-88 -2 -103 0 -109 14
-3 9 -1 25 5 35 7 11 8 20 2 24 -6 3 -10 24 -10 46 l0 39 110 0 111 0 -3 -77z
m85 -31 c27 -74 22 -165 -11 -237 -38 -80 -54 -92 -85 -69 -21 16 -22 22 -13
47 9 24 8 31 -8 43 -28 20 -43 17 -61 -10 -12 -18 -14 -30 -7 -43 8 -14 5 -23
-13 -39 l-22 -20 -27 22 c-14 13 -21 26 -16 29 12 8 13 52 1 59 -4 3 1 39 12
81 25 92 47 102 47 20 0 -30 5 -55 10 -55 6 0 10 25 10 55 0 81 23 74 45 -15
16 -63 29 -89 40 -78 3 2 -4 36 -15 74 -11 38 -20 70 -20 71 0 2 13 3 29 3 36
0 41 13 41 98 l1 67 23 -28 c12 -15 30 -49 39 -75z m-416 -14 c-2 -13 -4 -5
-4 17 -1 22 1 32 4 23 2 -10 2 -28 0 -40z m77 22 c20 -7 26 -16 26 -40 0 -27
3 -30 31 -30 21 0 30 -4 26 -12 -2 -7 -10 -38 -17 -69 -9 -40 -18 -58 -34 -65
-16 -7 -21 -18 -21 -44 0 -22 -8 -43 -21 -56 l-21 -21 -26 23 c-15 13 -22 26
-17 29 15 9 12 46 -6 66 -14 15 -15 28 -7 76 l9 58 8 -67 c6 -52 11 -68 23
-68 14 0 15 15 9 115 -8 121 -7 123 38 105z m45 -371 c25 1 55 2 66 2 11 1 40
0 63 -2 39 -3 42 -4 25 -16 -34 -25 -124 -46 -177 -40 -52 5 -141 35 -132 44
10 10 71 21 90 16 11 -3 40 -5 65 -4z"/>
</g>
</svg>
