<?xml version="1.0" standalone="no"?>
<!DOCTYPE svg PUBLIC "-//W3C//DTD SVG 20010904//EN"
 "http://www.w3.org/TR/2001/REC-SVG-20010904/DTD/svg10.dtd">
<svg version="1.0" xmlns="http://www.w3.org/2000/svg"
 width="88.000000pt" height="80.000000pt" viewBox="0 0 88.000000 80.000000"
 preserveAspectRatio="xMidYMid meet">

<g transform="translate(0.000000,80.000000) scale(0.100000,-0.100000)"
fill="#000000" stroke="none">
<path d="M343 740 c-143 -51 -233 -179 -233 -330 0 -205 172 -364 376 -347
161 12 285 129 316 295 9 50 8 72 -5 129 -51 205 -262 323 -454 253z m255 -49
c58 -29 113 -86 142 -146 35 -71 35 -199 1 -267 -53 -108 -149 -170 -272 -176
-67 -4 -85 0 -138 24 -151 67 -221 233 -166 394 23 68 108 157 175 182 65 25
199 20 258 -11z"/>
<path d="M437 583 l-65 -78 29 -17 c49 -30 27 -81 -27 -62 -13 5 -8 -5 16 -30
19 -20 40 -35 46 -34 6 2 50 49 97 105 l87 101 -54 46 c-29 25 -56 46 -59 46
-4 0 -35 -35 -70 -77z m68 -39 c34 -35 -6 -91 -52 -73 -17 6 -23 17 -23 38 0
16 5 33 10 36 6 3 10 -3 10 -14 0 -12 5 -21 11 -21 6 0 9 -7 5 -15 -3 -9 0
-15 9 -15 22 0 30 22 12 35 -9 7 -14 15 -10 18 3 4 1 7 -5 7 -7 0 -12 5 -12
10 0 16 27 12 45 -6z"/>
<path d="M287 577 c-37 -11 -38 -11 -35 -56 3 -38 6 -45 21 -43 11 2 26 -3 35
-11 27 -21 95 -38 107 -26 10 10 -7 29 -51 55 -17 10 -15 13 16 41 19 17 32
34 28 38 -12 12 -83 14 -121 2z"/>
<path d="M210 546 c0 -47 11 -96 21 -96 5 0 9 29 9 65 0 51 -3 65 -15 65 -10
0 -15 -10 -15 -34z"/>
<path d="M331 347 c-9 -11 -2 -23 34 -56 42 -39 48 -41 108 -41 35 0 68 -5 74
-11 10 -10 113 -4 113 7 0 10 -33 70 -48 87 -12 13 -31 17 -83 17 -37 0 -70
-4 -73 -9 -8 -12 14 -28 44 -34 17 -3 13 -5 -15 -6 -39 -1 -64 8 -116 42 -22
15 -28 15 -38 4z"/>
<path d="M593 223 c-65 -6 -52 -23 17 -23 47 0 60 3 60 15 0 8 -8 14 -17 13
-10 -1 -37 -3 -60 -5z"/>
</g>
</svg>
