<?xml version="1.0" standalone="no"?>
<!DOCTYPE svg PUBLIC "-//W3C//DTD SVG 20010904//EN"
 "http://www.w3.org/TR/2001/REC-SVG-20010904/DTD/svg10.dtd">
<svg version="1.0" xmlns="http://www.w3.org/2000/svg"
 width="86.000000pt" height="84.000000pt" viewBox="0 0 86.000000 84.000000"
 preserveAspectRatio="xMidYMid meet">

<g transform="translate(0.000000,84.000000) scale(0.100000,-0.100000)"
fill="#000000" stroke="none">
<path d="M311 754 c-98 -35 -165 -97 -210 -194 -22 -46 -26 -69 -26 -140 0
-76 4 -93 33 -152 38 -77 92 -130 171 -166 80 -38 202 -38 282 0 79 36 133 89
171 166 29 59 33 76 33 152 0 71 -4 94 -27 142 -35 76 -98 142 -167 175 -71
34 -192 42 -260 17z m244 -53 c74 -35 116 -78 151 -155 23 -51 26 -67 22 -140
-3 -66 -10 -91 -33 -135 -99 -180 -345 -217 -494 -72 -67 65 -94 140 -89 241
5 83 26 135 80 196 83 94 243 123 363 65z"/>
<path d="M346 628 c-3 -13 -6 -64 -6 -115 0 -78 -2 -91 -15 -87 -11 5 -15 -1
-15 -20 0 -14 -2 -26 -4 -26 -2 0 -24 11 -47 25 -24 14 -47 25 -51 25 -5 0 -8
-43 -8 -95 l0 -95 220 0 220 0 0 70 0 70 -50 25 c-61 31 -60 31 -60 0 0 -18
-4 -23 -15 -19 -11 5 -15 22 -15 63 0 89 -11 161 -25 161 -16 0 -25 -46 -25
-126 0 -52 -3 -62 -15 -58 -11 5 -15 -1 -15 -21 0 -17 -5 -25 -12 -23 -16 6
-15 3 -23 151 -5 85 -10 117 -20 117 -7 0 -15 -10 -19 -22z m-6 -328 c0 -30
-1 -30 -55 -30 -54 0 -55 0 -55 30 0 30 1 30 55 30 54 0 55 0 55 -30z m130 0
c0 -29 -1 -30 -50 -30 -49 0 -50 1 -50 30 0 29 1 30 50 30 49 0 50 -1 50 -30z
m140 0 c0 -30 -1 -30 -55 -30 -54 0 -55 0 -55 30 0 30 1 30 55 30 54 0 55 0
55 -30z"/>
</g>
</svg>
