<?xml version="1.0" standalone="no"?>
<!DOCTYPE svg PUBLIC "-//W3C//DTD SVG 20010904//EN"
 "http://www.w3.org/TR/2001/REC-SVG-20010904/DTD/svg10.dtd">
<svg version="1.0" xmlns="http://www.w3.org/2000/svg"
 width="81.000000pt" height="79.000000pt" viewBox="0 0 81.000000 79.000000"
 preserveAspectRatio="xMidYMid meet">

<g transform="translate(0.000000,79.000000) scale(0.100000,-0.100000)"
fill="#000000" stroke="none">
<path d="M288 731 c-70 -28 -128 -75 -170 -137 -48 -71 -61 -121 -56 -215 6
-95 39 -169 104 -229 155 -143 393 -124 519 41 51 67 68 121 68 214 1 70 -3
89 -31 147 -36 74 -95 133 -170 169 -66 32 -198 37 -264 10z m260 -53 c198
-94 231 -359 63 -510 -140 -126 -367 -95 -467 64 -77 121 -62 282 34 381 104
108 234 131 370 65z"/>
<path d="M377 620 c-46 -14 -93 -56 -116 -103 -25 -52 -28 -117 -6 -117 8 0
15 5 15 10 0 14 43 12 59 -2 11 -10 14 -10 18 0 3 6 19 12 37 12 26 0 34 -6
46 -32 l13 -33 4 33 c4 30 7 32 45 32 32 0 39 -3 34 -16 -3 -9 -6 -24 -6 -34
0 -14 -9 -20 -32 -23 -30 -4 -31 -5 -10 -12 12 -4 22 -16 22 -26 0 -23 16 -25
24 -3 3 8 11 12 18 8 8 -5 5 -13 -10 -25 -23 -18 -29 -39 -12 -39 5 0 28 16
50 36 57 52 78 123 56 197 -31 108 -142 169 -249 137z m53 -32 c-1 -37 -14
-58 -36 -58 -29 0 -30 10 -3 44 22 28 39 34 39 14z m50 -10 c27 -29 25 -48 -5
-48 -22 0 -25 4 -25 35 0 41 3 42 30 13z m-127 -18 c-6 -21 -18 -26 -28 -11
-4 7 17 28 32 31 0 0 -1 -9 -4 -20z m197 -5 c0 -15 -21 -12 -30 5 -11 20 -10
21 9 10 12 -6 21 -13 21 -15z m-226 -31 c8 -3 13 -11 11 -17 -2 -7 -6 -24 -9
-39 -5 -22 -12 -28 -32 -28 -24 0 -26 3 -20 32 5 27 22 58 31 58 2 0 10 -3 19
-6z m264 -21 c23 -63 23 -63 -7 -63 -25 0 -30 5 -35 35 -4 20 -4 40 -1 45 12
19 33 10 43 -17z m-184 1 c10 -4 16 -18 16 -35 0 -26 -3 -29 -35 -29 -32 0
-35 3 -35 28 0 41 15 51 54 36z m116 -13 c0 -11 3 -26 6 -35 5 -13 -2 -16 -35
-16 -39 0 -41 2 -41 29 0 31 10 39 48 40 15 1 22 -5 22 -18z m80 -91 c0 -28
-21 -70 -36 -70 -20 0 -26 17 -18 55 5 28 11 35 30 35 17 0 24 -6 24 -20z"/>
<path d="M187 383 c-4 -3 -7 -30 -7 -60 l0 -53 155 0 c121 0 155 3 155 13 0
21 -64 77 -87 77 -11 0 -23 7 -27 15 -4 12 -24 15 -94 15 -49 0 -92 -3 -95 -7z
m248 -63 c18 -20 17 -20 -8 -20 -20 0 -27 5 -27 20 0 11 4 20 8 20 5 0 17 -9
27 -20z"/>
<path d="M180 240 c0 -13 10 -24 25 -30 14 -5 25 -14 25 -20 0 -16 50 -11 57
6 3 8 -2 23 -11 32 -14 14 -19 15 -39 3 -20 -13 -21 -13 -8 2 18 22 34 21 56
-3 22 -25 83 -27 99 -4 10 13 12 11 11 -13 0 -22 5 -29 23 -31 14 -2 25 3 30
15 4 10 14 18 22 18 8 0 16 10 18 23 l3 22 -155 0 c-150 0 -156 -1 -156 -20z
m90 -28 c0 -13 -12 -22 -22 -16 -10 6 -1 24 13 24 5 0 9 -4 9 -8z m160 -2 c0
-5 -4 -10 -10 -10 -5 0 -10 5 -10 10 0 6 5 10 10 10 6 0 10 -4 10 -10z"/>
</g>
</svg>
